<?xml version="1.0" ?><svg xmlns="http://www.w3.org/2000/svg" xmlns:xlink="http://www.w3.org/1999/xlink" version="1.1" viewBox="0 0 512 512" style="enable-background:new 0 0 512 512;" xml:space="preserve"><g id="_x30_4_Calculator_x2C__Commerce_and_Shopping_x2C__Finances_x2C__Budget_x2C__Cost"><g><path style="fill:#ECE6F2;" d="M471,10.938H151c-16.57,0-30,13.43-30,30v240l19.78,218.21c3.19,1.16,6.63,1.79,10.22,1.79h320    c16.57,0,30-13.43,30-30v-430C501,24.368,487.57,10.938,471,10.938z"/><rect x="281" y="400.938" style="fill:#4E5F7E;" width="60" height="50"/><rect x="391" y="300.938" style="fill:#82E693;" width="60" height="150"/><rect x="281" y="300.938" style="fill:#4E5F7E;" width="60" height="50"/><rect x="391" y="200.938" style="fill:#4E5F7E;" width="60" height="50"/><rect x="281" y="200.938" style="fill:#4E5F7E;" width="60" height="50"/><rect x="171" y="200.938" style="fill:#4E5F7E;" width="60" height="50"/><rect x="171" y="60.938" style="fill:#72E4FA;" width="280" height="90"/><circle style="fill:#FF6378;" cx="121" cy="390.938" r="109.998"/><g><path d="M471,0.938H151c-22.056,0-40,17.944-40,40v230.417C49.36,276.43,1,327.986,1,390.938     c0,73.941,66,130.121,139.112,118.487c10.099,2.862-4.297,0.987,330.888,1.513c22.056,0,40-17.944,40-40v-430     C511,18.882,493.056,0.938,471,0.938z M21,390.938c0-55.275,44.733-100,100-100c88.003,0,134.184,107.238,70.71,170.71     c0,0,0,0,0,0c-19.284,19.285-44.608,29.289-70.71,29.289C65.725,490.938,21,446.203,21,390.938z M491,470.938     c0,11.028-8.972,20-20,20c-163.235-0.201-243.59,0.039-283.74,0.088C219.797,469.391,241,432.744,241,390.938     c0-62.961-48.369-114.508-110-119.583V40.938c0-11.028,8.972-20,20-20h320c11.028,0,20,8.972,20,20V470.938z"/><path d="M451,50.938H171c-5.522,0-10,4.477-10,10v90c0,5.523,4.478,10,10,10h280c5.522,0,10-4.477,10-10v-90     C461,55.415,456.522,50.938,451,50.938z M441,140.938H181v-70h260V140.938z"/><path d="M231,190.938h-60c-5.522,0-10,4.477-10,10v50c0,5.523,4.478,10,10,10h60c5.522,0,10-4.477,10-10v-50     C241,195.415,236.522,190.938,231,190.938z M221,240.938h-40v-30h40V240.938z"/><path d="M341,190.938h-60c-5.522,0-10,4.477-10,10v50c0,5.523,4.478,10,10,10h60c5.522,0,10-4.477,10-10v-50     C351,195.415,346.522,190.938,341,190.938z M331,240.938h-40v-30h40V240.938z"/><path d="M451,190.938h-60c-5.522,0-10,4.477-10,10v50c0,5.523,4.478,10,10,10h60c5.522,0,10-4.477,10-10v-50     C461,195.415,456.522,190.938,451,190.938z M441,240.938h-40v-30h40V240.938z"/><path d="M341,290.938h-60c-5.522,0-10,4.477-10,10v50c0,5.523,4.478,10,10,10h60c5.522,0,10-4.477,10-10v-50     C351,295.415,346.522,290.938,341,290.938z M331,340.938h-40v-30h40V340.938z"/><path d="M341,390.938h-60c-5.522,0-10,4.477-10,10v50c0,5.523,4.478,10,10,10h60c5.522,0,10-4.477,10-10v-50     C351,395.415,346.522,390.938,341,390.938z M331,440.938h-40v-30h40V440.938z"/><path d="M451,290.938h-60c-5.522,0-10,4.477-10,10v150c0,5.523,4.478,10,10,10h60c5.522,0,10-4.477,10-10v-150     C461,295.415,456.522,290.938,451,290.938z M441,440.938h-40v-130h40V440.938z"/><path d="M177.568,334.369c-3.906-3.905-10.236-3.905-14.143,0l-98.994,98.995c-3.905,3.905-3.905,10.237,0,14.142     c3.906,3.905,10.236,3.905,14.143,0l98.994-98.995C181.474,344.606,181.474,338.274,177.568,334.369z"/><path d="M391,120.938h10c5.522,0,10-4.477,10-10s-4.478-10-10-10h-10c-5.522,0-10,4.477-10,10S385.478,120.938,391,120.938z"/><path d="M331,120.938h10c5.522,0,10-4.477,10-10s-4.478-10-10-10h-10c-5.522,0-10,4.477-10,10S325.478,120.938,331,120.938z"/><path d="M271,120.938h10c5.522,0,10-4.477,10-10s-4.478-10-10-10h-10c-5.522,0-10,4.477-10,10S265.478,120.938,271,120.938z"/><ellipse transform="matrix(0.9871 -0.1602 0.1602 0.9871 -56.8921 19.5326)" cx="92.707" cy="362.645" rx="9.995" ry="9.995"/><circle cx="149.275" cy="419.218" r="9.995"/></g></g></g><g id="Layer_1"/></svg>